<svg xmlns="http://www.w3.org/2000/svg" version="1.1" xmlns:xlink="http://www.w3.org/1999/xlink" xmlns:svgjs="http://svgjs.dev/svgjs" width="1440" height="560" preserveAspectRatio="none" viewBox="0 0 1440 560">
    <g mask="url(&quot;#SvgjsMask1000&quot;)" fill="none">
        <rect width="1440" height="560" x="0" y="0" fill="#1e3266"></rect>
        <path d="M1488 560L0 560 L0 301.46Q76.79 258.25, 120 335.04Q170.14 265.18, 240 315.32Q259.81 263.13, 312 282.93Q381.7 232.63, 432 302.33Q504.44 254.77, 552 327.22Q594.42 249.64, 672 292.07Q767.14 267.21, 792 362.35Q837.31 287.66, 912 332.97Q958.53 259.5, 1032 306.04Q1089.26 291.3, 1104 348.56Q1106.63 279.19, 1176 281.82Q1241.58 227.39, 1296 292.97Q1361.03 286, 1368 351.03Q1407.09 270.12, 1488 309.21z" fill="#182f5d"></path>
        <path d="M1464 560L0 560 L0 417.09Q3.67 348.75, 72 352.42Q137.81 298.24, 192 364.05Q275.88 327.93, 312 411.81Q353.99 333.8, 432 375.79Q515.7 339.5, 552 423.2Q576.94 376.14, 624 401.09Q704.52 361.61, 744 442.12Q765.33 343.44, 864 364.77Q906.83 335.6, 936 378.42Q992.34 362.75, 1008 419.09Q1050.81 389.89, 1080 432.7Q1101.47 334.17, 1200 355.64Q1244.82 328.45, 1272 373.27Q1321.92 351.19, 1344 401.12Q1383.1 320.22, 1464 359.32z" fill="#25467d"></path>
        <path d="M1488 560L0 560 L0 516.9Q45.74 442.64, 120 488.39Q127.25 423.64, 192 430.89Q222.79 389.68, 264 420.47Q350 386.47, 384 472.46Q451.16 419.62, 504 486.77Q550.33 413.1, 624 459.42Q690.57 405.99, 744 472.55Q797.37 453.92, 816 507.29Q834.6 405.89, 936 424.49Q1021.53 390.02, 1056 475.55Q1096.32 395.87, 1176 436.18Q1226.05 414.23, 1248 464.27Q1301.63 397.9, 1368 451.53Q1453.96 417.49, 1488 503.45z" fill="#356cb1"></path>
        <path d="M1488 560L0 560 L0 576.44Q17.09 521.53, 72 538.62Q87.77 482.39, 144 498.16Q189.78 471.94, 216 517.72Q265.16 494.88, 288 544.04Q298.11 482.15, 360 492.26Q420.36 480.62, 432 540.98Q486.75 523.73, 504 578.47Q530.94 533.41, 576 560.36Q606.31 470.67, 696 500.99Q739.39 472.38, 768 515.78Q859.4 487.18, 888 578.58Q914.5 533.09, 960 559.59Q1012.96 492.55, 1080 545.5Q1128.49 522, 1152 570.49Q1166.96 513.45, 1224 528.41Q1267.3 499.7, 1296 543Q1368.3 495.3, 1416 567.59Q1416.85 496.44, 1488 497.29z" fill="white"></path>
    </g>
    <defs>
        <mask id="SvgjsMask1000">
            <rect width="1440" height="560" fill="#ffffff"></rect>
        </mask>
    </defs>
</svg>